# File created by Blade
# Date/Time:  Tue Jan 27 18:05:51 2015
#---------------------------------------------------------
:version 1.10
:name HOM
:units
  mass 1.0
  length 1.000000
  angle deg
:documentation
     Acclaim Skeleton File
:root
   axis xyz
   order TX TY TZ RX RY RZ
   position 0.000000 0.000000 0.000000
   orientation 0 0 0
:bonedata
   begin
      id 1
      name Spine_dum
      direction 0.000000 1.000000 0.000000
      length 5.195262
      axis 0.0 0.0 0.0 xyz
   end
   begin
      id 2
      name LeftUpLeg_dum
      direction 1.000000 0.000000 0.000000
      length 3.351363
      axis 0.0 0.0 0.0 xyz
   end
   begin
      id 3
      name RightUpLeg_dum
      direction -1.000000 0.000000 0.000000
      length 3.351363
      axis 0.0 0.0 0.0 xyz
   end
   begin
      id 4
      name Spine
      direction 0.000000 1.000000 0.000000
      length 0.000000
      axis 0.0 0.0 0.0 xyz
      dof rx ry rz
   end
   begin
      id 5
      name Spine_dum1
      direction 0.000000 1.000000 0.000000
      length 15.653875
      axis 0.0 0.0 0.0 xyz
   end
   begin
      id 6
      name Spine_dum2
      direction 0.000000 1.000000 0.000000
      length 10.329768
      axis 0.0 0.0 0.0 xyz
   end
   begin
      id 7
      name Spine_dum3
      direction 0.000000 1.000000 0.000000
      length 10.329768
      axis 0.0 0.0 0.0 xyz
   end
   begin
      id 8
      name Head
      direction 0.000000 1.000000 0.000000
      length 4.527550
      axis 0.0 0.0 0.0 xyz
      dof rx ry rz
   end
   begin
      id 9
      name LeftShoulder
      direction 1.000000 0.000000 0.000000
      length 6.996006
      axis 0.0 0.0 -90.0 xyz
      dof rx ry rz
   end
   begin
      id 10
      name LeftArm
      direction 1.000000 0.000000 0.000000
      length 10.209302
      axis 0.0 0.0 -90.0 xyz
      dof rx ry rz
   end
   begin
      id 11
      name LeftForeArm
      direction 1.000000 0.000000 0.000000
      length 8.563163
      axis 0.0 0.0 -90.0 xyz
      dof ry rz rx
   end
   begin
      id 12
      name LeftHand
      direction 0.000000 0.000000 0.000000
      length 0.000000
      axis 0.0 0.0 -90.0 xyz
      dof rx ry rz
   end
   begin
      id 13
      name LeftHand_dum1
      direction 0.000000 0.000000 0.000000
      length 0.000000
      axis 0.0 0.0 -90.0 xyz
   end
   begin
      id 14
      name LeftHand_dum2
      direction 1.000000 0.000000 0.000000
      length 3.937000
      axis 0.0 0.0 -90.0 xyz
   end
   begin
      id 15
      name LeftHandThumb1
      direction 0.000000 0.000000 1.000000
      length 3.937000
      axis 0.0 0.0 -90.0 xyz
      dof rx rz ry
   end
   begin
      id 16
      name RightShoulder
      direction -1.000000 0.000000 0.000000
      length 6.996006
      axis 0.0 0.0 90.0 xyz
      dof rx ry rz
   end
   begin
      id 17
      name RightArm
      direction -1.000000 0.000000 0.000000
      length 10.209302
      axis 0.0 0.0 90.0 xyz
      dof rx ry rz
   end
   begin
      id 18
      name RightForeArm
      direction -1.000000 0.000000 0.000000
      length 8.563163
      axis 0.0 0.0 90.0 xyz
      dof ry rz rx
   end
   begin
      id 19
      name RightHand
      direction 0.000000 0.000000 0.000000
      length 0.000000
      axis 0.0 0.0 90.0 xyz
      dof rx ry rz
   end
   begin
      id 20
      name RightHand_dum1
      direction 0.000000 0.000000 0.000000
      length 0.000000
      axis 0.0 0.0 90.0 xyz
   end
   begin
      id 21
      name RightHand_dum2
      direction -1.000000 0.000000 0.000000
      length 3.937000
      axis 0.0 0.0 90.0 xyz
   end
   begin
      id 22
      name RightHandThumb1
      direction 0.000000 0.000000 1.000000
      length 3.937000
      axis 0.0 0.0 90.0 xyz
      dof rx rz ry
   end
   begin
      id 23
      name LeftUpLeg
      direction 0.000000 -1.000000 0.000000
      length 16.346831
      axis 0.0 0.0 0.0 xyz
      dof rx ry rz
   end
   begin
      id 24
      name LeftLeg
      direction 0.000000 -1.000000 0.000000
      length 13.959795
      axis 0.0 0.0 0.0 xyz
      dof rx ry rz
   end
   begin
      id 25
      name LeftFoot
      direction 0.000000 -0.258819 0.965926
      length 5.165550
      axis 15.0 0.0 0.0 xyz
      dof rx ry rz
   end
   begin
      id 26
      name LeftToeBase
      direction 0.000000 0.000000 1.000000
      length 2.952750
      axis 0.0 0.0 0.0 xyz
      dof rx ry rz
   end
   begin
      id 27
      name RightUpLeg
      direction 0.000000 -1.000000 0.000000
      length 16.346831
      axis 0.0 0.0 0.0 xyz
      dof rx ry rz
   end
   begin
      id 28
      name RightLeg
      direction 0.000000 -1.000000 0.000000
      length 13.959795
      axis 0.0 0.0 0.0 xyz
      dof rx ry rz
   end
   begin
      id 29
      name RightFoot
      direction 0.000000 -0.258819 0.965926
      length 5.165550
      axis 15.0 0.0 0.0 xyz
      dof rx ry rz
   end
   begin
      id 30
      name RightToeBase
      direction 0.000000 0.000000 1.000000
      length 2.952750
      axis 0.0 0.0 0.0 xyz
      dof rx ry rz
   end
:hierarchy
   begin
      root Spine_dum LeftUpLeg_dum RightUpLeg_dum
      Spine_dum Spine
      LeftUpLeg_dum LeftUpLeg
      RightUpLeg_dum RightUpLeg
      Spine Spine_dum1 Spine_dum2 Spine_dum3
      Spine_dum1 Head
      Spine_dum2 LeftShoulder
      Spine_dum3 RightShoulder
      LeftShoulder LeftArm
      LeftArm LeftForeArm
      LeftForeArm LeftHand
      LeftHand LeftHand_dum1 LeftHand_dum2
      LeftHand_dum1 LeftHandThumb1
      RightShoulder RightArm
      RightArm RightForeArm
      RightForeArm RightHand
      RightHand RightHand_dum1 RightHand_dum2
      RightHand_dum1 RightHandThumb1
      LeftUpLeg LeftLeg
      LeftLeg LeftFoot
      LeftFoot LeftToeBase
      RightUpLeg RightLeg
      RightLeg RightFoot
      RightFoot RightToeBase
   end

# File created by Blade
# Date/Time:  Tue Jan 27 18:05:41 2015
# Frame Rate: 120.000 fps
#------------------------------------------------------
:FULLY-SPECIFIED
:DEGREES
1900
root -1.258160 31.908518 -6.115869 8.128827 25.658805 5.811018
Spine -7.010211 1.691696 -4.987108
Head -10.766254 -27.075254 -1.790107
LeftShoulder -9.438188 14.784198 5.495682
LeftArm 25.687530 40.491500 -69.601590
LeftForeArm -3.434643 0.000000 15.404017
LeftHand -10.777689 -0.000000 -5.921842
LeftHandThumb1 -26.253704 0.000000 33.147579
RightShoulder 2.126695 35.218092 -41.325894
RightArm 76.576764 45.510534 123.257481
RightForeArm 34.228187 -0.000000 127.479848
RightHand -2.728701 0.000000 2.799420
RightHandThumb1 -24.326973 -0.000000 -32.862282
LeftUpLeg -4.051278 -11.885176 -1.248725
LeftLeg 1.105734 -0.000000 -0.000000
LeftFoot -12.701167 10.352156 -23.645535
LeftToeBase 8.502639 -0.000000 -0.000000
RightUpLeg 4.245772 -15.089567 -4.134042
RightLeg -3.797129 -0.000000 0.000000
RightFoot -18.369106 -21.184528 12.726647
RightToeBase 5.440151 -0.000000 -0.000000
1901
root -1.259561 31.907404 -6.111638 8.162214 25.719943 5.810423
Spine -6.994921 1.688522 -4.983616
Head -10.710270 -27.098826 -1.786250
LeftShoulder -9.359549 14.776988 5.522681
LeftArm 25.617641 40.483919 -69.655049
LeftForeArm -3.505409 -0.000000 15.390687
LeftHand -10.853907 -0.000000 -6.007396
LeftHandThumb1 -26.253704 0.000000 33.147579
RightShoulder 1.931352 35.328945 -41.434166
RightArm 78.262247 45.528189 124.796717
RightForeArm 33.943952 -0.000000 130.179948
RightHand -2.068412 -0.000000 2.652345
RightHandThumb1 -24.326973 -0.000000 -32.862282
LeftUpLeg -4.063045 -11.980817 -1.217753
LeftLeg 1.057039 -0.000000 -0.000000
LeftFoot -12.685346 10.355953 -23.685206
LeftToeBase 8.453892 -0.000000 -0.000000
RightUpLeg 4.239296 -15.132910 -4.113735
RightLeg -3.822377 -0.000000 0.000000
RightFoot -18.354712 -21.210876 12.713900
RightToeBase 5.371006 -0.000000 -0.000000
1902
root -1.259800 31.908797 -6.108444 8.211416 25.785899 5.827222
Spine -7.012605 1.644309 -4.964869
Head -10.765907 -27.388717 -1.766512
LeftShoulder -9.279452 14.791923 5.503587
LeftArm 25.530880 40.461170 -69.686120
LeftForeArm -3.599111 -0.000000 15.391420
LeftHand -10.847719 -0.000000 -5.962482
LeftHandThumb1 -26.253704 0.000000 33.147579
RightShoulder 1.804912 35.591580 -41.537900
RightArm 79.816211 45.580940 126.223747
RightForeArm 33.939350 -0.000000 132.713976
RightHand -1.253971 -0.000000 2.709713
RightHandThumb1 -24.326973 -0.000000 -32.862282
LeftUpLeg -4.118028 -11.966477 -1.222569
LeftLeg 1.083495 -0.000000 -0.000000
LeftFoot -12.648726 10.321662 -23.631001
LeftToeBase 8.452369 -0.000000 -0.000000
RightUpLeg 4.226427 -15.142379 -4.109550
RightLeg -3.843928 -0.000000 0.000000
RightFoot -18.364787 -21.252323 12.758733
RightToeBase 5.389478 -0.000000 -0.000000
1903
root -1.261171 31.909056 -6.103482 8.243430 25.846027 5.832647
Spine -6.993276 1.620929 -4.962716
Head -10.596579 -27.196170 -1.854678
LeftShoulder -9.253573 14.797842 5.502309
LeftArm 25.533398 40.500412 -69.660756
LeftForeArm -3.675687 -0.000000 15.356196
LeftHand -10.807699 -0.000000 -5.954458
LeftHandThumb1 -26.253704 0.000000 33.147579
RightShoulder 1.543863 35.916466 -41.685266
RightArm 81.313495 45.566107 127.629592
RightForeArm 34.133977 -0.000000 135.029196
RightHand -0.574672 -0.000000 2.868722
RightHandThumb1 -24.326973 -0.000000 -32.862282
LeftUpLeg -4.139813 -12.004554 -1.207983
LeftLeg 1.068524 -0.000000 -0.000000
LeftFoot -12.630227 10.302712 -23.637036
LeftToeBase 8.448718 -0.000000 -0.000000
RightUpLeg 4.223852 -15.182098 -4.095698
RightLeg -3.863861 -0.000000 0.000000
RightFoot -18.372917 -21.256100 12.786654
RightToeBase 5.435874 -0.000000 -0.000000
1904
root -1.261573 31.909496 -6.098985 8.277209 25.903904 5.836887
Spine -6.980736 1.597126 -4.951877
Head -10.464465 -27.094892 -1.919774
LeftShoulder -9.200551 14.873258 5.479429
LeftArm 25.581682 40.471312 -69.604011
LeftForeArm -3.759339 0.000000 15.348915
LeftHand -10.814341 -0.000000 -5.968247
LeftHandThumb1 -26.253704 0.000000 33.147579
RightShoulder 1.229106 36.254545 -41.885366
RightArm 82.699317 45.530778 128.919642
RightForeArm 34.635645 -0.000000 137.174121
RightHand 0.053657 -0.000000 2.829733
RightHandThumb1 -24.326973 -0.000000 -32.862282
LeftUpLeg -4.166100 -12.034228 -1.194234
LeftLeg 1.058665 -0.000000 -0.000000
LeftFoot -12.608194 10.276125 -23.636746
LeftToeBase 8.432935 -0.000000 -0.000000
RightUpLeg 4.214399 -15.204707 -4.081594
RightLeg -3.875780 -0.000000 0.000000
RightFoot -18.367391 -21.292454 12.793764
RightToeBase 5.375344 -0.000000 -0.000000
1905
root -1.262096 31.908720 -6.094264 8.309846 25.957577 5.841890
Spine -7.007957 1.543907 -4.940465
Head -10.413715 -27.281197 -1.905156
LeftShoulder -9.111069 14.911109 5.497597
LeftArm 25.504559 40.423764 -69.667021
LeftForeArm -3.826009 -0.000000 15.325216
LeftHand -10.769598 -0.000000 -5.933345
LeftHandThumb1 -26.253704 0.000000 33.147579
RightShoulder 1.015233 36.526472 -42.025995
RightArm 84.120945 45.450318 130.148273
RightForeArm 35.246359 -0.000000 139.147944
RightHand 0.616194 -0.000000 2.539508
RightHandThumb1 -24.326973 -0.000000 -32.862282
LeftUpLeg -4.186231 -12.073104 -1.182761
LeftLeg 1.042307 -0.000000 -0.000000
LeftFoot -12.607019 10.267588 -23.633280
LeftToeBase 8.483525 -0.000000 -0.000000
RightUpLeg 4.205957 -15.212396 -4.069919
RightLeg -3.885447 -0.000000 0.000000
RightFoot -18.395909 -21.313477 12.826351
RightToeBase 5.439288 -0.000000 -0.000000
1906
root -1.261891 31.907900 -6.089073 8.330664 26.003840 5.836012
Spine -7.029589 1.488400 -4.909626
Head -10.262329 -27.308753 -1.972760
LeftShoulder -9.073526 14.933829 5.495851
LeftArm 25.471794 40.445792 -69.672707
LeftForeArm -3.961843 -0.000000 15.304001
LeftHand -10.746017 -0.000000 -5.906282
LeftHandThumb1 -26.253704 0.000000 33.147579
RightShoulder 0.796296 36.706634 -42.201738
RightArm 85.552554 45.307130 131.363510
RightForeArm 35.761791 -0.000000 141.012439
RightHand 0.894097 -0.000000 1.981288
RightHandThumb1 -24.326973 -0.000000 -32.862282
LeftUpLeg -4.182751 -12.155745 -1.152031
LeftLeg 0.991395 -0.000000 -0.000000
LeftFoot -12.606359 10.256517 -23.708760
LeftToeBase 8.480261 -0.000000 -0.000000
RightUpLeg 4.198151 -15.252901 -4.049725
RightLeg -3.884538 -0.000000 0.000000
RightFoot -18.395842 -21.330706 12.825539
RightToeBase 5.392548 -0.000000 -0.000000
1907
root -1.261297 31.908917 -6.083682 8.347049 26.045340 5.836720
Spine -7.040653 1.416856 -4.889006
Head -10.151346 -27.353835 -2.048354
LeftShoulder -9.019342 14.916513 5.497677
LeftArm 25.326229 40.391502 -69.772217
LeftForeArm -3.968081 -0.000000 15.305377
LeftHand -10.749369 -0.000000 -5.908454
LeftHandThumb1 -26.253704 0.000000 33.147579
RightShoulder 0.553797 36.764166 -42.360140
RightArm 86.988120 45.023031 132.507787
RightForeArm 36.293215 0.000000 142.647445
RightHand 1.528455 -0.000000 1.491516
RightHandThumb1 -24.326973 -0.000000 -32.862282
LeftUpLeg -4.186261 -12.176958 -1.142134
LeftLeg 0.975868 -0.000000 -0.000000
LeftFoot -12.574196 10.245504 -23.679547
LeftToeBase 8.445763 -0.000000 -0.000000
RightUpLeg 4.199494 -15.248701 -4.039326
RightLeg -3.888265 -0.000000 0.000000
RightFoot -18.399668 -21.372251 12.842252
RightToeBase 5.368284 -0.000000 -0.000000
1908
root -1.260155 31.909202 -6.077630 8.360671 26.085165 5.844991
Spine -7.050454 1.354866 -4.884533
Head -10.002961 -27.374075 -2.082652
LeftShoulder -8.959247 14.894031 5.514702
LeftArm 25.199241 40.379001 -69.845628
LeftForeArm -4.033705 -0.000000 15.311404
LeftHand -10.745974 -0.000000 -5.884398
LeftHandThumb1 -26.253704 0.000000 33.147579
RightShoulder 0.289226 36.822879 -42.530523
RightArm 88.315079 44.796764 133.600579
RightForeArm 37.083963 -0.000000 144.116786
RightHand 2.027918 -0.000000 1.362841
RightHandThumb1 -24.326973 -0.000000 -32.862282
LeftUpLeg -4.186520 -12.202420 -1.140956
LeftLeg 0.972860 -0.000000 -0.000000
LeftFoot -12.572399 10.225950 -23.695252
LeftToeBase 8.468022 -0.000000 -0.000000
RightUpLeg 4.196722 -15.304085 -4.039526
RightLeg -3.862356 -0.000000 0.000000
RightFoot -18.430579 -21.352520 12.872041
RightToeBase 5.395322 -0.000000 -0.000000
